<?xml version="1.0" standalone="no"?>
<!DOCTYPE svg PUBLIC "-//W3C//DTD SVG 20010904//EN"
 "http://www.w3.org/TR/2001/REC-SVG-20010904/DTD/svg10.dtd">
<svg version="1.0" xmlns="http://www.w3.org/2000/svg"
 width="1024.000000pt" height="1024.000000pt" viewBox="0 0 1024.000000 1024.000000"
 preserveAspectRatio="xMidYMid meet">

<g transform="translate(0.000000,1024.000000) scale(0.100000,-0.100000)"
fill="#000000" stroke="none">
<path d="M2001 7490 c-80 -23 -193 -99 -243 -165 -20 -26 -47 -80 -60 -119
l-23 -71 0 -2010 0 -2010 23 -64 c29 -80 64 -131 134 -197 67 -64 93 -77 188
-98 69 -15 328 -16 3135 -14 2816 3 3064 5 3106 20 81 29 123 54 178 109 57
58 78 93 107 179 18 53 19 135 22 2040 2 1368 -1 2004 -8 2047 -15 90 -43 146
-102 209 -69 73 -130 117 -201 143 l-58 21 -3067 -1 c-2940 0 -3070 -1 -3131
-19z m5829 -393 c0 -2 -93 -88 -207 -192 -115 -105 -239 -220 -278 -256 -38
-36 -151 -140 -251 -230 -176 -160 -512 -469 -864 -794 -96 -89 -245 -224
-330 -300 -163 -146 -327 -297 -520 -476 -167 -156 -194 -174 -256 -173 -40 0
-60 6 -87 27 -43 32 -323 285 -507 457 -74 69 -207 191 -295 270 -88 80 -277
253 -419 385 -143 132 -309 285 -371 340 -188 169 -292 264 -464 425 -246 229
-449 419 -508 473 l-52 47 2704 0 c1488 0 2705 -1 2705 -3z m330 -1989 l0
-1723 -377 376 c-208 207 -406 400 -439 430 -34 30 -200 189 -370 354 -170
165 -383 371 -473 457 l-164 157 129 124 c71 68 185 173 254 233 69 60 159
141 200 179 41 39 145 134 230 210 85 77 268 244 405 371 492 454 600 553 603
554 1 0 2 -775 2 -1722z m-5744 1417 c175 -159 362 -330 414 -380 97 -91 274
-249 455 -404 55 -47 178 -163 275 -257 96 -93 212 -201 257 -238 72 -59 81
-70 70 -84 -6 -10 -226 -226 -487 -481 -261 -256 -665 -654 -897 -885 l-423
-421 0 1723 c0 975 4 1722 9 1720 5 -1 152 -133 327 -293z m1940 -1771 c76
-70 168 -152 204 -183 36 -31 108 -96 160 -144 149 -139 256 -187 415 -187
171 1 253 48 527 308 57 53 148 137 203 187 55 49 114 102 131 118 l31 28 309
-302 c170 -166 426 -414 569 -550 143 -136 404 -390 580 -563 l320 -315 -2678
-1 -2679 0 164 171 c202 212 1583 1559 1598 1559 4 0 70 -57 146 -126z"/>
</g>
</svg>
