<?xml version="1.0" standalone="no"?>
<!DOCTYPE svg PUBLIC "-//W3C//DTD SVG 20010904//EN"
 "http://www.w3.org/TR/2001/REC-SVG-20010904/DTD/svg10.dtd">
<svg version="1.0" xmlns="http://www.w3.org/2000/svg"
 width="1920.000000pt" height="1920.000000pt" viewBox="0 0 1920.000000 1920.000000"
 preserveAspectRatio="xMidYMid meet">

<g transform="translate(0.000000,1920.000000) scale(0.100000,-0.100000)"
fill="#000000" stroke="none">
<path d="M5725 15229 c-296 -28 -602 -177 -801 -393 -214 -230 -327 -500 -341
-816 -16 -357 104 -682 346 -933 153 -159 316 -263 521 -331 139 -46 257 -66
399 -66 456 0 871 236 1103 626 183 309 224 710 107 1059 -123 369 -438 678
-814 800 -151 49 -353 70 -520 54z"/>
<path d="M12525 11990 c-302 -27 -619 -96 -864 -186 -403 -150 -738 -381 -995
-688 -53 -63 -101 -118 -106 -121 -7 -4 -10 120 -10 350 0 227 -4 363 -10 376
-10 19 -33 19 -1075 19 -585 0 -1070 -3 -1079 -6 -15 -6 -16 -317 -16 -3433 0
-2141 4 -3432 10 -3441 8 -13 139 -15 1079 -15 588 0 1073 4 1078 8 4 5 10
932 13 2060 l5 2052 26 95 c152 550 477 923 895 1030 331 85 698 14 953 -185
281 -218 480 -638 521 -1095 6 -73 10 -826 10 -2051 0 -1757 1 -1937 16 -1943
9 -3 492 -6 1074 -6 952 0 1060 2 1074 16 15 14 16 214 15 2122 0 1159 -5
2170 -10 2247 -53 841 -269 1521 -635 2005 -336 443 -765 693 -1329 776 -122
18 -503 26 -640 14z"/>
<path d="M4770 11721 c-12 -24 -9 -6855 3 -6868 10 -9 2012 -17 2105 -8 l62 7
0 3424 c0 2342 -3 3431 -10 3445 -10 19 -33 19 -1080 19 -1048 0 -1069 0
-1080 -19z"/>
</g>
</svg>
