<?xml version="1.0" standalone="no"?>
<!DOCTYPE svg PUBLIC "-//W3C//DTD SVG 20010904//EN"
 "http://www.w3.org/TR/2001/REC-SVG-20010904/DTD/svg10.dtd">
<svg version="1.0" xmlns="http://www.w3.org/2000/svg"
 width="1024.000000pt" height="1024.000000pt" viewBox="0 0 1024.000000 1024.000000"
 preserveAspectRatio="xMidYMid meet">

<g transform="translate(0.000000,1024.000000) scale(0.100000,-0.100000)"
fill="#000000" stroke="none">
<path d="M3150 8764 c-36 -7 -92 -27 -125 -44 -67 -33 -331 -239 -498 -386
-252 -223 -438 -482 -552 -763 -90 -226 -125 -406 -126 -656 0 -264 35 -515
107 -760 125 -425 454 -1032 887 -1637 361 -506 850 -1036 1447 -1570 477
-426 972 -771 1435 -998 405 -199 711 -280 1053 -280 464 1 829 147 1212 485
152 135 443 462 525 590 101 159 110 365 24 540 -43 89 -128 178 -262 277 -62
45 -290 215 -507 377 -217 162 -415 307 -440 322 -114 70 -282 101 -410 76
-181 -36 -258 -92 -539 -396 -258 -277 -264 -282 -418 -289 -164 -8 -247 29
-500 224 -497 383 -907 785 -1291 1266 -234 294 -437 591 -473 694 -57 162
-22 356 85 472 22 24 138 116 258 204 120 88 242 186 271 217 135 146 177 360
109 553 -10 29 -75 157 -144 283 -69 127 -205 379 -303 560 -98 182 -197 358
-221 391 -146 206 -371 299 -604 248z"/>
</g>
</svg>
