<?xml version="1.0" standalone="no"?>
<!DOCTYPE svg PUBLIC "-//W3C//DTD SVG 20010904//EN"
 "http://www.w3.org/TR/2001/REC-SVG-20010904/DTD/svg10.dtd">
<svg version="1.0" xmlns="http://www.w3.org/2000/svg"
 width="1024.000000pt" height="1024.000000pt" viewBox="0 0 1024.000000 1024.000000"
 preserveAspectRatio="xMidYMid meet">

<g transform="translate(0.000000,1024.000000) scale(0.100000,-0.100000)"
fill="#000000" stroke="none">
<path d="M5020 10209 c-128 -22 -265 -119 -337 -240 -60 -100 -63 -129 -63
-581 l0 -407 -87 -45 c-297 -154 -513 -421 -613 -756 -100 -337 -41 -706 160
-1006 50 -74 218 -253 284 -303 l29 -22 -20 -27 c-32 -43 -147 -136 -210 -169
-130 -69 -232 -64 -311 15 -32 31 -47 41 -55 33 -6 -6 -7 -11 -3 -11 5 0 3 -7
-4 -15 -7 -8 -9 -15 -5 -15 5 0 0 -9 -10 -20 -10 -11 -15 -20 -10 -20 4 0 3
-6 -2 -12 -6 -7 -16 -31 -23 -53 -7 -22 -17 -46 -23 -52 -6 -9 -5 -13 4 -13 8
0 5 -6 -7 -15 -14 -11 -16 -15 -4 -15 12 0 10 -4 -4 -15 -14 -11 -16 -15 -5
-15 10 -1 9 -5 -5 -15 -12 -9 -15 -15 -7 -15 11 0 11 -3 1 -15 -7 -8 -9 -15
-5 -15 4 0 2 -7 -5 -15 -7 -8 -9 -15 -5 -15 5 0 0 -10 -11 -22 -12 -13 -13
-18 -4 -13 9 5 7 -1 -5 -14 -11 -13 -19 -24 -17 -25 2 0 -2 -14 -8 -30 -6 -16
-12 -39 -13 -50 -1 -12 -9 -27 -17 -34 -8 -8 -9 -11 -2 -7 19 10 14 -13 -5
-24 -14 -8 -15 -11 -3 -11 12 0 10 -4 -4 -15 -12 -9 -15 -15 -7 -15 11 0 11
-3 1 -15 -7 -8 -9 -15 -5 -15 4 0 2 -7 -5 -15 -7 -8 -9 -15 -5 -15 5 0 0 -10
-11 -22 -12 -13 -13 -18 -4 -13 9 5 7 0 -4 -14 -20 -22 -20 -22 0 -15 17 6 16
4 -3 -10 -18 -14 -37 -58 -38 -91 0 -5 -7 -16 -15 -23 -8 -8 -9 -11 -2 -7 18
9 15 -6 -5 -21 -15 -11 -15 -13 -3 -14 12 0 10 -4 -4 -15 -12 -9 -15 -15 -7
-15 11 0 11 -3 1 -15 -7 -8 -9 -15 -5 -15 4 0 2 -7 -5 -15 -7 -8 -9 -15 -5
-15 4 0 2 -7 -5 -15 -7 -8 -9 -15 -5 -15 5 0 1 -8 -8 -17 -8 -10 -16 -20 -16
-23 0 -3 -5 -18 -11 -34 -6 -16 -12 -39 -13 -50 -1 -12 -9 -26 -17 -33 -13
-11 -13 -12 -1 -13 11 0 9 -4 -5 -15 -14 -11 -16 -15 -4 -15 12 0 10 -4 -4
-15 -14 -11 -16 -15 -5 -15 10 -1 9 -5 -5 -15 -12 -9 -15 -15 -7 -15 11 0 11
-3 1 -15 -7 -8 -9 -15 -5 -15 4 0 2 -7 -5 -15 -7 -8 -9 -15 -5 -15 5 0 0 -10
-11 -22 -12 -13 -13 -18 -4 -13 9 5 7 -1 -5 -14 -11 -13 -19 -24 -17 -25 2 0
-2 -14 -8 -30 -6 -16 -12 -39 -13 -50 -1 -12 -9 -27 -17 -34 -8 -8 -9 -11 -2
-7 19 10 14 -13 -5 -24 -14 -8 -15 -11 -3 -11 12 0 10 -4 -4 -15 -12 -9 -15
-15 -7 -15 11 0 11 -3 1 -15 -7 -8 -9 -15 -5 -15 4 0 2 -7 -5 -15 -7 -8 -9
-15 -5 -15 5 0 0 -10 -11 -22 -12 -13 -13 -18 -4 -13 9 5 7 0 -4 -14 -20 -22
-20 -22 0 -15 17 6 16 4 -3 -10 -18 -14 -37 -58 -38 -91 0 -5 -7 -16 -15 -23
-8 -8 -9 -11 -2 -7 18 9 15 -6 -5 -21 -15 -11 -15 -13 -3 -14 12 0 10 -4 -4
-15 -12 -9 -15 -15 -7 -15 11 0 11 -3 1 -15 -7 -8 -9 -15 -5 -15 4 0 2 -7 -5
-15 -7 -8 -9 -15 -5 -15 4 0 2 -7 -5 -15 -7 -8 -9 -15 -5 -15 5 0 1 -8 -8 -17
-8 -10 -16 -22 -17 -28 -2 -5 -7 -21 -12 -34 -5 -14 -10 -34 -11 -45 -1 -12
-9 -26 -17 -33 -13 -11 -13 -12 -1 -13 11 0 9 -4 -5 -15 -14 -11 -16 -15 -4
-15 12 0 10 -4 -4 -15 -14 -11 -16 -15 -5 -15 10 -1 9 -5 -5 -15 -12 -9 -15
-15 -7 -15 11 0 11 -3 1 -15 -7 -8 -9 -15 -5 -15 4 0 2 -7 -5 -15 -7 -8 -9
-15 -5 -15 5 0 0 -10 -11 -22 -12 -13 -13 -18 -4 -13 12 7 12 5 -1 -11 -18
-21 -52 -115 -44 -122 3 -3 -3 -11 -13 -19 -9 -8 -11 -12 -4 -8 19 10 14 -13
-5 -24 -14 -8 -15 -11 -3 -11 12 0 10 -4 -4 -15 -12 -9 -15 -15 -7 -15 11 0
11 -3 1 -15 -7 -8 -9 -15 -5 -15 4 0 2 -7 -5 -15 -7 -8 -9 -15 -5 -15 5 0 0
-10 -11 -22 -12 -13 -13 -18 -4 -13 11 6 11 4 -2 -11 -9 -10 -17 -21 -17 -24
0 -3 -5 -18 -11 -34 -6 -16 -12 -39 -13 -50 -1 -12 -9 -27 -17 -34 -8 -8 -9
-11 -2 -7 18 9 15 -6 -5 -21 -15 -11 -15 -13 -3 -14 12 0 10 -4 -4 -15 -12 -9
-15 -15 -7 -15 11 0 11 -3 1 -15 -7 -8 -9 -15 -5 -15 4 0 2 -7 -5 -15 -7 -8
-9 -15 -5 -15 4 0 2 -7 -5 -15 -7 -8 -9 -15 -5 -15 5 0 1 -8 -8 -17 -8 -10
-16 -20 -16 -23 0 -3 -5 -18 -11 -34 -6 -16 -12 -39 -13 -50 -1 -12 -9 -26
-17 -33 -13 -11 -13 -12 -1 -13 11 0 9 -4 -5 -15 -14 -11 -16 -15 -4 -15 12 0
10 -4 -4 -15 -12 -9 -15 -15 -7 -15 11 0 11 -3 1 -15 -7 -8 -9 -15 -5 -15 4 0
2 -7 -5 -15 -7 -8 -9 -15 -5 -15 4 0 2 -7 -5 -15 -7 -8 -9 -15 -5 -15 5 0 0
-10 -11 -22 -12 -13 -13 -18 -4 -13 12 7 12 5 -1 -11 -18 -21 -52 -115 -44
-122 3 -3 -3 -11 -13 -19 -9 -8 -11 -12 -4 -8 19 10 14 -13 -5 -24 -14 -8 -15
-11 -3 -11 12 0 10 -4 -4 -15 -12 -9 -15 -15 -7 -15 11 0 11 -3 1 -15 -7 -8
-9 -15 -5 -15 4 0 2 -7 -5 -15 -7 -8 -9 -15 -5 -15 5 0 0 -10 -11 -22 -12 -13
-13 -18 -4 -13 9 5 7 -1 -5 -14 -11 -13 -19 -24 -17 -25 2 0 -2 -14 -8 -30 -6
-16 -12 -39 -13 -50 -1 -12 -9 -27 -17 -34 -8 -8 -9 -11 -2 -7 18 9 15 -6 -5
-21 -15 -11 -15 -13 -3 -14 12 0 10 -4 -4 -15 -12 -9 -15 -15 -7 -15 11 0 11
-3 1 -15 -7 -8 -9 -15 -5 -15 4 0 2 -7 -5 -15 -7 -8 -9 -15 -5 -15 4 0 2 -7
-5 -15 -7 -8 -9 -15 -5 -15 5 0 1 -8 -8 -17 -8 -10 -16 -20 -16 -23 0 -3 -5
-18 -11 -34 -6 -16 -12 -39 -13 -50 -1 -12 -9 -26 -17 -33 -13 -11 -13 -12 -1
-13 11 0 9 -4 -5 -15 -14 -11 -16 -15 -4 -15 12 0 10 -4 -4 -15 -12 -9 -15
-15 -7 -15 11 0 11 -3 1 -15 -7 -8 -9 -15 -5 -15 4 0 2 -7 -5 -15 -7 -8 -9
-15 -5 -15 4 0 2 -7 -5 -15 -7 -8 -9 -15 -5 -15 5 0 0 -10 -11 -22 -12 -13
-13 -18 -4 -13 12 7 12 5 -1 -11 -18 -21 -52 -115 -44 -122 3 -3 -3 -11 -13
-19 -9 -8 -11 -12 -4 -8 19 10 14 -13 -5 -24 -14 -8 -15 -11 -3 -11 12 0 10
-4 -4 -15 -12 -9 -15 -15 -7 -15 11 0 11 -3 1 -15 -7 -8 -9 -15 -5 -15 4 0 2
-7 -5 -15 -7 -8 -9 -15 -5 -15 5 0 0 -10 -11 -22 -12 -13 -13 -18 -4 -13 9 5
7 -1 -5 -14 -11 -13 -19 -26 -19 -30 1 -3 -3 -17 -8 -30 -5 -14 -10 -34 -11
-45 -1 -12 -9 -27 -17 -34 -8 -8 -9 -11 -2 -7 18 9 15 -6 -6 -21 -14 -11 -14
-13 -2 -14 12 0 10 -4 -4 -15 -12 -9 -15 -15 -7 -15 11 0 11 -3 1 -15 -7 -8
-9 -15 -5 -15 4 0 2 -7 -5 -15 -7 -8 -9 -15 -5 -15 4 0 2 -7 -5 -15 -7 -8 -9
-15 -5 -15 5 0 1 -8 -8 -17 -8 -10 -16 -20 -16 -23 0 -3 -5 -18 -11 -34 -6
-16 -12 -39 -13 -50 -1 -12 -9 -26 -17 -33 -13 -11 -13 -12 -1 -13 11 0 9 -4
-5 -15 -14 -11 -16 -15 -4 -15 12 0 10 -4 -4 -15 -12 -9 -15 -15 -7 -15 11 0
11 -3 1 -15 -7 -8 -9 -15 -5 -15 4 0 2 -7 -5 -15 -7 -8 -9 -15 -5 -15 4 0 2
-7 -5 -15 -7 -8 -9 -15 -5 -15 5 0 0 -10 -11 -22 -12 -13 -13 -18 -4 -13 12 7
12 5 -1 -11 -18 -21 -52 -115 -44 -122 3 -3 -3 -11 -13 -19 -9 -8 -11 -12 -4
-8 19 10 14 -13 -5 -24 -14 -8 -15 -11 -3 -11 12 0 10 -4 -4 -15 -12 -9 -15
-15 -7 -15 9 0 10 -4 4 -13 -6 -6 -9 -23 -8 -37 2 -14 -55 -210 -126 -436 -71
-226 -129 -428 -129 -448 0 -51 21 -96 63 -133 70 -62 160 -67 234 -14 39 28
46 41 376 651 l94 175 74 6 c85 7 194 36 210 55 6 7 12 19 13 26 1 7 5 19 9
26 5 6 5 12 1 12 -3 0 0 10 8 23 12 17 49 124 64 180 1 4 2 8 4 10 1 1 3 9 5
18 1 9 10 32 18 50 8 19 23 59 32 89 9 30 19 62 22 70 4 8 7 18 8 23 2 4 3 8
5 10 1 1 3 10 5 21 2 10 8 23 14 29 6 6 11 17 11 23 0 7 5 25 11 41 6 15 10
28 9 28 -2 0 4 16 12 35 8 19 16 38 16 43 1 4 2 8 3 10 0 1 2 9 4 18 1 9 10
32 18 50 8 19 23 59 32 89 9 30 19 62 22 70 4 8 7 17 8 20 9 26 18 48 26 62 5
10 9 22 9 27 0 5 4 20 9 33 5 13 9 25 9 28 0 3 7 22 15 42 9 21 13 38 10 38
-3 0 0 7 7 15 7 8 9 15 5 15 -4 0 -1 10 7 23 8 12 14 30 12 40 -1 11 0 16 4
13 5 -5 33 70 47 124 2 8 4 16 5 18 2 1 3 5 5 10 5 17 17 48 26 64 5 10 9 25
9 34 0 8 5 25 12 37 7 12 14 33 16 47 2 13 8 30 14 37 6 7 7 13 3 13 -4 0 -2
7 5 15 7 8 9 15 6 15 -4 0 0 12 8 28 12 22 55 143 62 175 1 4 2 8 4 10 1 1 3
9 5 18 1 9 10 32 18 50 8 19 23 59 32 89 9 30 19 62 22 70 4 8 7 17 8 20 9 26
18 48 26 62 5 10 9 22 9 27 0 5 4 20 9 33 5 13 9 25 9 28 0 3 7 22 15 42 9 21
13 38 10 38 -3 0 0 7 7 15 7 8 9 15 5 15 -4 0 -1 10 7 23 8 12 14 30 12 40 -1
9 1 15 5 13 4 -3 15 26 25 62 11 37 22 72 25 77 3 6 6 12 7 15 2 11 16 46 25
62 5 10 9 22 9 27 0 5 4 20 9 33 5 13 10 28 11 33 1 6 8 25 15 43 8 17 11 32
8 32 -3 0 0 7 7 15 7 8 9 15 5 15 -4 0 -1 10 7 23 12 17 49 124 64 180 1 4 2
8 4 10 1 1 3 9 5 18 1 9 10 32 18 50 8 19 23 59 32 89 9 30 19 62 22 70 4 8 7
18 8 23 2 4 3 8 5 10 1 1 3 10 5 21 2 10 8 23 14 29 6 6 11 17 11 23 0 7 5 25
11 41 6 15 10 29 10 31 -1 1 5 18 13 37 9 20 15 38 16 40 0 3 0 6 1 8 0 1 2 9
4 18 1 9 10 32 18 50 8 19 23 59 32 89 9 30 19 62 22 70 4 8 7 17 8 20 9 26
18 48 26 62 5 10 9 22 9 27 0 5 5 22 11 38 6 15 10 29 10 31 -1 1 5 18 13 37
8 19 12 35 9 35 -3 0 0 7 7 15 7 8 9 15 5 15 -4 0 -1 10 7 23 8 12 14 30 12
40 -1 11 0 16 4 13 5 -5 33 70 47 124 2 8 4 15 5 15 1 0 3 7 5 16 1 9 10 32
18 50 8 19 23 59 32 89 9 30 19 62 22 70 4 8 7 17 7 20 1 3 5 11 9 18 5 6 5
12 2 12 -3 0 1 12 9 28 12 22 55 143 62 175 1 4 2 8 4 10 1 1 3 9 5 18 1 9 10
32 18 50 8 19 23 59 32 89 9 30 19 62 22 70 4 8 7 17 8 20 9 26 18 48 26 62 5
10 9 22 9 27 0 5 5 22 11 38 6 15 10 28 9 28 -2 0 5 17 13 38 9 20 13 37 10
37 -3 0 0 7 7 15 7 8 9 15 5 15 -4 0 -1 10 7 23 8 12 14 30 12 40 -1 11 0 16
4 13 5 -5 33 70 47 124 2 8 4 16 5 18 2 1 3 5 5 10 4 16 17 48 24 62 5 9 12
30 16 48 3 18 8 32 10 32 2 0 45 -11 97 -25 110 -29 250 -46 331 -40 l58 4 15
-34 c7 -19 191 -517 408 -1107 217 -590 431 -1171 475 -1291 45 -120 81 -222
81 -227 0 -12 -247 -92 -400 -129 -295 -71 -504 -95 -835 -95 -300 0 -431 13
-694 65 -85 18 -157 28 -159 23 -1 -5 -108 -297 -236 -649 -156 -426 -230
-642 -222 -646 44 -25 488 -116 696 -143 319 -41 874 -47 1170 -12 339 41 702
120 1000 220 91 30 165 54 165 53 1 -1 110 -301 244 -667 134 -366 258 -693
278 -728 65 -119 177 -231 296 -300 92 -53 260 -101 355 -102 l37 -1 204 -381
c112 -209 216 -394 230 -411 90 -107 260 -77 316 55 8 21 15 50 15 65 0 15
-59 215 -131 445 l-132 416 59 70 c115 136 174 268 195 431 12 94 2 216 -25
303 -7 24 -149 414 -315 868 -595 1624 -681 1860 -809 2215 -72 198 -158 434
-192 525 -275 735 -940 2569 -966 2665 -18 66 -46 152 -63 192 -104 252 -301
468 -553 607 l-68 38 0 417 c0 457 -2 473 -60 576 -32 56 -126 150 -181 184
-93 55 -229 79 -339 60z m45 -154 c38 -19 55 -51 55 -106 0 -81 -60 -166 -145
-205 -58 -28 -104 -30 -145 -9 -38 20 -50 43 -50 101 0 88 61 173 154 215 50
23 88 24 131 4z m210 -1510 c235 -61 421 -239 502 -480 23 -69 27 -97 27 -205
1 -142 -18 -221 -82 -345 -56 -107 -192 -239 -302 -293 -97 -48 -170 -68 -273
-78 -129 -11 -296 28 -415 98 -73 42 -208 177 -250 250 -105 178 -127 402 -58
599 82 235 293 417 541 465 84 16 226 11 310 -11z"/>
<path d="M8740 6375 c-28 -15 -325 -360 -325 -378 0 -7 10 -13 22 -15 17 -3
43 22 125 120 57 68 129 149 161 181 52 53 69 88 49 100 -4 3 -18 -1 -32 -8z"/>
<path d="M8366 5952 c-6 -10 41 -59 48 -51 7 7 -17 52 -31 56 -6 2 -14 0 -17
-5z"/>
<path d="M7698 5841 c-45 -15 -96 -50 -103 -71 -4 -11 -10 -20 -14 -20 -5 0
-8 -28 -9 -62 0 -63 0 -63 52 -114 37 -36 65 -54 98 -62 53 -13 122 -16 115
-4 -3 4 7 8 21 9 15 0 28 6 30 12 2 6 9 11 15 12 25 1 60 61 65 109 6 67 -28
126 -95 162 -53 29 -133 42 -175 29z m155 -65 c19 -15 23 -41 5 -33 -41 17
-68 33 -68 40 0 12 44 7 63 -7z m-133 -191 c7 -8 8 -15 2 -15 -5 0 -15 7 -22
15 -7 8 -8 15 -2 15 5 0 15 -7 22 -15z"/>
<path d="M1675 5330 c-110 -66 -207 -124 -215 -130 -8 -5 -24 -15 -35 -20 -11
-6 -32 -18 -46 -28 -35 -23 -187 -114 -274 -166 -38 -22 -100 -60 -137 -83
-36 -24 -69 -43 -72 -43 -4 0 -24 -12 -45 -27 -72 -52 -79 -56 -86 -54 -4 2
-11 -1 -14 -6 -3 -5 -16 -16 -28 -24 -22 -15 -21 -16 96 -191 222 -331 452
-602 735 -866 194 -182 551 -461 567 -445 6 7 473 1278 486 1325 3 11 -53 74
-180 200 -202 201 -311 332 -450 540 -51 76 -94 137 -97 137 -3 0 -95 -54
-205 -119z"/>
<path d="M8940 4388 c0 -2 -4 -18 -9 -36 -6 -18 -6 -30 -1 -27 5 3 129 -18
276 -46 298 -57 358 -58 338 -6 -4 12 -28 16 -102 19 -53 3 -166 17 -250 32
-110 20 -161 25 -180 18 -34 -11 -52 -5 -52 18 0 10 -4 22 -10 25 -5 3 -10 5
-10 3z"/>
<path d="M8292 4360 c-51 -12 -110 -57 -143 -107 -24 -40 -29 -57 -29 -112 0
-107 48 -161 143 -161 129 0 239 132 217 262 -15 88 -97 140 -188 118z m-96
-168 c-12 -11 -18 7 -10 30 l8 23 4 -23 c2 -13 1 -26 -2 -30z m221 -57 c-9
-19 -21 -35 -27 -35 -14 0 -13 7 7 52 11 25 20 35 27 28 6 -6 4 -22 -7 -45z"/>
</g>
</svg>
