<?xml version="1.0" standalone="no"?>
<!DOCTYPE svg PUBLIC "-//W3C//DTD SVG 20010904//EN"
 "http://www.w3.org/TR/2001/REC-SVG-20010904/DTD/svg10.dtd">
<svg version="1.0" xmlns="http://www.w3.org/2000/svg"
 width="500.000000pt" height="500.000000pt" viewBox="0 0 500.000000 500.000000"
 preserveAspectRatio="xMidYMid meet">

<g transform="translate(0.000000,500.000000) scale(0.100000,-0.100000)"
fill="#000000" stroke="none">
<path d="M720 3740 c-129 -13 -339 -79 -391 -124 -17 -14 -19 -27 -17 -104 3
-82 4 -87 26 -90 13 -2 60 10 105 26 149 54 213 66 342 66 182 1 272 -40 317
-142 21 -46 48 -295 35 -309 -4 -3 -51 2 -105 13 -137 27 -403 27 -482 0 -147
-50 -246 -133 -303 -253 -26 -56 -32 -83 -35 -157 -11 -224 88 -382 279 -446
56 -19 80 -21 194 -18 100 3 143 9 187 25 78 29 162 81 227 142 30 28 55 50
56 48 23 -64 103 -173 137 -187 31 -14 43 -9 136 57 73 51 74 60 32 149 -16
35 -35 83 -41 106 -6 25 -14 208 -18 438 -8 424 -8 426 -66 540 -46 89 -157
169 -280 200 -84 21 -233 30 -335 20z m320 -851 c115 -21 104 -8 97 -112 -8
-115 -19 -155 -60 -209 -71 -92 -177 -146 -307 -155 -93 -7 -149 8 -197 50
-52 46 -73 98 -72 182 0 98 22 150 83 196 51 39 67 45 151 59 58 10 225 4 305
-11z"/>
<path d="M4138 3740 c-194 -35 -334 -136 -398 -285 -18 -42 -21 -65 -18 -150
3 -87 7 -108 32 -160 63 -128 166 -197 401 -270 271 -83 312 -105 346 -179 22
-48 23 -74 7 -127 -16 -54 -67 -103 -135 -130 -50 -20 -76 -23 -188 -23 -147
0 -230 15 -351 64 -43 17 -89 30 -103 28 -25 -3 -26 -5 -29 -87 -2 -69 0 -87
15 -103 28 -31 100 -64 208 -94 89 -25 117 -28 255 -28 175 -1 236 10 347 60
122 55 214 158 248 278 41 143 -2 306 -105 399 -64 58 -104 76 -342 154 -255
83 -320 125 -334 215 -14 81 22 150 95 188 20 10 74 24 120 31 119 18 252 -2
399 -60 63 -25 66 -25 86 -5 21 21 21 125 1 164 -20 39 -75 66 -194 97 -106
27 -282 38 -363 23z"/>
<path d="M1588 3703 c-20 -5 -25 -65 -9 -105 6 -13 23 -68 40 -123 17 -55 60
-197 96 -315 36 -118 73 -240 81 -270 9 -30 24 -80 34 -110 10 -30 31 -100 48
-155 83 -275 113 -364 128 -376 13 -10 49 -14 135 -14 99 0 120 3 137 18 15
14 34 76 72 235 29 119 81 334 115 477 35 143 71 293 80 332 10 40 21 71 25
68 3 -2 12 -30 19 -62 13 -59 39 -169 134 -563 30 -124 67 -278 83 -343 38
-166 34 -162 189 -162 115 0 128 2 141 20 8 11 32 76 54 145 35 113 102 325
182 580 16 52 49 158 72 235 24 77 64 206 90 288 25 81 46 156 46 167 0 28
-37 40 -123 40 -96 0 -141 -13 -156 -46 -13 -29 -26 -75 -111 -409 -34 -132
-75 -289 -91 -350 -16 -60 -43 -170 -61 -242 -18 -73 -35 -133 -39 -133 -3 0
-13 30 -22 68 -9 37 -37 153 -62 257 -25 105 -66 276 -90 381 -71 306 -95 403
-107 429 -14 31 -60 45 -148 45 -85 0 -138 -15 -150 -43 -6 -12 -39 -148 -75
-302 -36 -154 -74 -316 -85 -360 -30 -127 -67 -282 -91 -385 -12 -52 -23 -90
-25 -85 -12 37 -250 974 -265 1040 -18 80 -39 114 -78 125 -36 10 -180 12
-213 3z"/>
</g>
</svg>
