<?xml version="1.0" encoding="UTF-8"?>
<svg version="1.1" xmlns="http://www.w3.org/2000/svg" width="96" height="96">
<path d="M0 0 C22.44 0 44.88 0 68 0 C68 13.5 68 13.5 67.54101562 18.50292969 C67.44091187 19.62318542 67.34080811 20.74344116 67.2376709 21.89764404 C67.128302 23.06064026 67.01893311 24.22363647 66.90625 25.421875 C66.73977966 27.26087372 66.73977966 27.26087372 66.56994629 29.13702393 C66.218337 33.00849556 65.85929727 36.87923508 65.5 40.75 C65.25862072 43.39318411 65.01773063 46.03641295 64.77734375 48.6796875 C64.19054737 55.12031924 63.59766791 61.56036848 63 68 C57.53721846 70.06639064 52.09195519 72.00176487 46.5 73.6875 C45.43845703 74.02491211 45.43845703 74.02491211 44.35546875 74.36914062 C34.54515602 77.31940835 27.16547448 75.50971919 17.5625 72.5625 C15.91217773 72.07426758 15.91217773 72.07426758 14.22851562 71.57617188 C6.15872327 69.15872327 6.15872327 69.15872327 5 68 C4.7592257 66.31848995 4.58067744 64.62801864 4.42749023 62.9362793 C4.32746201 61.85392502 4.22743378 60.77157074 4.12437439 59.65641785 C3.96806297 57.88322929 3.96806297 57.88322929 3.80859375 56.07421875 C3.69902847 54.86111526 3.5894632 53.64801178 3.47657776 52.39814758 C3.24490498 49.81828639 3.01556172 47.23821514 2.78833008 44.65795898 C2.4423144 40.74198615 2.08594885 36.82705448 1.72851562 32.91210938 C1.50457488 30.40370231 1.28124884 27.89524027 1.05859375 25.38671875 C0.95236191 24.22685959 0.84613007 23.06700043 0.73667908 21.87199402 C0.63980301 20.75496597 0.54292694 19.63793793 0.44311523 18.48706055 C0.35730698 17.52189011 0.27149872 16.55671967 0.18309021 15.56230164 C-0.08319325 10.38134728 0 5.18779288 0 0 Z " fill="#0277BD" transform="translate(14,10)"/>
<path d="M0 0 C11.88 0 23.76 0 36 0 C36 9.26491467 35.81483693 18.1915676 35 27.375 C34.85691406 29.06882812 34.85691406 29.06882812 34.7109375 30.796875 C34.47916913 33.53174171 34.24216018 36.26603736 34 39 C23.43887184 43.28675005 17.41109689 45.17393147 6.5 40.9375 C4.2725 39.9784375 4.2725 39.9784375 2 39 C2 35.37 2 31.74 2 28 C4.64 28 7.28 28 10 28 C10.33 29.65 10.66 31.3 11 33 C16.9589999 34.88178944 20.14210361 35.19671115 26 33 C26 30.03 26 27.06 26 24 C20.39 24 14.78 24 9 24 C9 21.36 9 18.72 9 16 C14.94 16 20.88 16 27 16 C27 13.36 27 10.72 27 8 C18.09 8 9.18 8 0 8 C0 5.36 0 2.72 0 0 Z " fill="#F6FBFE" transform="translate(30,26)"/>
<path d="M0 0 C8.91 0 17.82 0 27 0 C27 11.25 27 11.25 26.6328125 15.44970703 C26.55272949 16.38992706 26.47264648 17.33014709 26.39013672 18.29885864 C26.3026416 19.27531342 26.21514648 20.25176819 26.125 21.2578125 C25.99182373 22.80140945 25.99182373 22.80140945 25.85595703 24.37619019 C25.57464368 27.62615666 25.28742371 30.87556881 25 34.125 C24.80689914 36.34371587 24.61418709 38.56246562 24.421875 40.78125 C23.95240866 46.18789958 23.47810672 51.594108 23 57 C15.59765625 60.26171875 15.59765625 60.26171875 11.81640625 61.16796875 C11.11708984 61.33876953 10.41777344 61.50957031 9.69726562 61.68554688 C8.99279297 61.85119141 8.28832031 62.01683594 7.5625 62.1875 C6.83095703 62.36474609 6.09941406 62.54199219 5.34570312 62.72460938 C3.56511585 63.15520891 1.78273774 63.57839216 0 64 C0 60.7 0 57.4 0 54 C2.29032311 53.16280617 4.58210957 52.3301071 6.875 51.5 C7.52597656 51.26152344 8.17695312 51.02304688 8.84765625 50.77734375 C13.7734375 49 13.7734375 49 16 49 C16.02505615 48.31599121 16.0501123 47.63198242 16.07592773 46.92724609 C16.53299069 34.6000197 17.01053673 22.2976149 18 10 C12.06 10 6.12 10 0 10 C0 6.7 0 3.4 0 0 Z " fill="#049BE4" transform="translate(48,16)"/>
<path d="M0 0 C2.64 0 5.28 0 8 0 C8.020625 0.763125 8.04125 1.52625 8.0625 2.3125 C8.79660949 5.41389118 8.79660949 5.41389118 12.5625 6.8125 C13.696875 7.204375 14.83125 7.59625 16 8 C16 10.64 16 13.28 16 16 C10.30860098 14.90301833 5.25432063 13.45946923 0 11 C0 7.37 0 3.74 0 0 Z " fill="#E3E8EB" transform="translate(32,54)"/>
<path d="M0 0 C5.94 0 11.88 0 18 0 C18 2.64 18 5.28 18 8 C12.06 8 6.12 8 0 8 C0 5.36 0 2.72 0 0 Z " fill="#EDEDED" transform="translate(30,26)"/>
<path d="M0 0 C2.64 0 5.28 0 8 0 C8 2.97 8 5.94 8 9 C3.545 10.485 3.545 10.485 -1 12 C-0.67 8.04 -0.34 4.08 0 0 Z " fill="#059BE4" transform="translate(48,50)"/>
<path d="M0 0 C2.97 0 5.94 0 9 0 C9 2.64 9 5.28 9 8 C6.03 8 3.06 8 0 8 C0 5.36 0 2.72 0 0 Z " fill="#ECEDED" transform="translate(39,42)"/>
<path d="M0 0 C2.97 0 5.94 0 9 0 C9 2.64 9 5.28 9 8 C6.03 8 3.06 8 0 8 C0 5.36 0 2.72 0 0 Z " fill="#039BE5" transform="translate(48,34)"/>
</svg>
