<?xml version="1.0" standalone="no"?>
<!DOCTYPE svg PUBLIC "-//W3C//DTD SVG 20010904//EN"
 "http://www.w3.org/TR/2001/REC-SVG-20010904/DTD/svg10.dtd">
<svg version="1.0" xmlns="http://www.w3.org/2000/svg"
 width="500.000000pt" height="500.000000pt" viewBox="0 0 500.000000 500.000000"
 preserveAspectRatio="xMidYMid meet">

<g transform="translate(0.000000,500.000000) scale(0.100000,-0.100000)"
fill="#000000" stroke="none">
<path d="M2391 4163 c-149 -150 -230 -255 -327 -420 -140 -237 -251 -587 -257
-813 l-2 -72 75 -27 c212 -78 415 -232 531 -402 228 -336 257 -760 77 -1111
-22 -43 -38 -84 -35 -92 16 -42 295 -236 453 -315 178 -89 158 -86 255 -34
363 194 641 564 723 963 95 463 -24 871 -388 1335 -113 145 -697 855 -741 901
-5 6 -52 61 -104 123 -52 61 -99 111 -104 111 -6 0 -76 -66 -156 -147z"/>
</g>
</svg>
