<?xml version="1.0" encoding="UTF-8"?>
<svg version="1.1" xmlns="http://www.w3.org/2000/svg" width="500" height="500">
<path d="M0 0 C165 0 330 0 500 0 C496.51729641 4.06315419 493.23062806 7.8943619 489.48230934 11.64073849 C488.62738132 12.49765756 487.7724533 13.35457662 486.89161837 14.23746294 C485.96748593 15.15868254 485.04335349 16.07990213 484.09121704 17.02903748 C483.08762375 18.03306742 482.08425048 19.03731733 481.08107698 20.0417667 C478.33769143 22.78737868 475.59121386 25.52987895 472.84420276 28.27186286 C469.87722946 31.23450516 466.9131596 34.20004983 463.94873047 37.16523743 C458.81685584 42.29763561 453.68315801 47.42820421 448.54820633 52.55752373 C441.12399149 59.97360078 433.7025497 67.3924478 426.28177504 74.81196702 C414.24107565 86.85047948 402.19814624 98.88675851 390.15380859 110.92163086 C378.45602038 122.6102357 366.75928615 134.29989361 355.06396484 145.9909668 C354.34268825 146.71198066 353.62141167 147.43299453 352.87827821 148.1758573 C349.25973956 151.79309088 345.64122159 155.41034515 342.0227139 159.02760971 C312.01834796 189.02161418 282.01036032 219.01199325 252 249 C253.48588534 252.45134745 255.4377352 254.685658 258.08796883 257.33127117 C258.94886624 258.19553398 259.80976364 259.05979679 260.69674885 259.95024937 C261.657618 260.90472163 262.61857846 261.85910196 263.57962036 262.81340027 C264.59647618 263.83041212 265.61289092 264.84786513 266.62890136 265.86572152 C269.42469336 268.66404885 272.22668723 271.45609378 275.02970672 274.24717891 C278.05036735 277.25716073 281.06524885 280.27292101 284.08081055 283.28800964 C289.30722993 288.5120654 294.537246 293.73249787 299.76965714 298.95055199 C307.33537178 306.49560484 314.89509804 314.04663465 322.45326947 321.59924296 C334.71628113 333.85299586 346.98338765 346.10264056 359.25341797 358.34936523 C359.9879782 359.08253215 360.72253843 359.81569907 361.47935806 360.57108317 C362.58261327 361.67224508 362.58261327 361.67224508 363.70815647 362.79565269 C374.14225569 373.20997313 384.57537819 383.62527075 395.00732422 394.04174805 C395.74159968 394.77493266 396.47587515 395.50811728 397.23240139 396.26351961 C409.45636493 408.46948725 421.67831714 420.67746757 433.8992337 432.88648587 C441.44394787 440.42359261 448.99073728 447.9586109 456.54018544 455.49097595 C461.70727627 460.64653506 466.87270074 465.80375946 472.03679504 470.96232005 C475.02075857 473.94293844 478.00557716 476.92268847 480.99256516 479.90027618 C483.72212542 482.62126121 486.44942957 485.34448575 489.17489575 488.06957141 C490.16587438 489.05957725 491.15771798 490.04871812 492.15047063 491.03694501 C493.49049896 492.37109389 494.82721344 493.70856885 496.16371346 495.04625225 C496.90991892 495.79099385 497.65612438 496.53573545 498.42494214 497.30304497 C500 499 500 499 500 500 C335 500 170 500 0 500 C0 335 0 170 0 0 Z " fill="#B726DA" transform="translate(0,0)"/>
</svg>
