<?xml version="1.0" encoding="UTF-8"?>
<svg version="1.1" xmlns="http://www.w3.org/2000/svg" width="860" height="860">
<path d="M0 0 C27.72 0 55.44 0 84 0 C84 187.77 84 375.54 84 569 C56.28 569 28.56 569 0 569 C0 381.23 0 193.46 0 0 Z " fill="#130753" transform="translate(194,242)"/>
<path d="M0 0 C27.39 0 54.78 0 83 0 C83 187.77 83 375.54 83 569 C55.61 569 28.22 569 0 569 C0 381.23 0 193.46 0 0 Z " fill="#130753" transform="translate(586,57)"/>
<path d="M0 0 C27.39 0 54.78 0 83 0 C83 56.76 83 113.52 83 172 C55.61 172 28.22 172 0 172 C0 115.24 0 58.48 0 0 Z " fill="#130753" transform="translate(456,242)"/>
<path d="M0 0 C27.39 0 54.78 0 83 0 C83 56.76 83 113.52 83 172 C55.61 172 28.22 172 0 172 C0 115.24 0 58.48 0 0 Z " fill="#140753" transform="translate(327,101)"/>
<path d="M0 0 C27.39 0 54.78 0 83 0 C83 56.43 83 112.86 83 171 C55.61 171 28.22 171 0 171 C0 114.57 0 58.14 0 0 Z " fill="#130753" transform="translate(456,594)"/>
<path d="M0 0 C27.39 0 54.78 0 83 0 C83 56.43 83 112.86 83 171 C55.61 171 28.22 171 0 171 C0 114.57 0 58.14 0 0 Z " fill="#140753" transform="translate(327,453)"/>
<path d="M0 0 C27.39 0 54.78 0 83 0 C83 27.06 83 54.12 83 82 C55.61 82 28.22 82 0 82 C0 54.94 0 27.88 0 0 Z " fill="#E60489" transform="translate(456,463)"/>
<path d="M0 0 C27.39 0 54.78 0 83 0 C83 27.06 83 54.12 83 82 C55.61 82 28.22 82 0 82 C0 54.94 0 27.88 0 0 Z " fill="#FEC902" transform="translate(327,322)"/>
</svg>
